<svg width="10" height="10" viewBox="0 0 10 10" fill="none" xmlns="http://www.w3.org/2000/svg">
<mask id="path-1-inside-1_3499_20558" fill="white">
<path fill-rule="evenodd" clip-rule="evenodd" d="M5 10C7.76142 10 10 7.76142 10 5C10 2.23858 7.76142 0 5 0C2.23858 0 0 2.23858 0 5C0 7.2156 1.44109 9.09462 3.43707 9.75087C3.45855 9.67069 3.48186 9.59161 3.50707 9.51365C2.92558 8.83773 2.92505 8.1804 2.92505 7.84961L2.92505 7.84926C2.92755 6.95597 3.19644 6.13584 3.88142 5.54164C4.56334 4.9501 5.63818 4.59961 7.21672 4.59961H8.61047C8.6795 4.59961 8.73547 4.65557 8.73547 4.72461V5.41905V5.42623L8.73526 5.42622C8.64743 6.95657 8.22624 8.0323 7.53368 8.72513C6.83991 9.41917 5.89219 9.71072 4.79102 9.71072H3.74449C3.73251 9.71072 3.72071 9.709 3.70941 9.7057C3.69801 9.74447 3.68707 9.78357 3.67658 9.82298C4.0981 9.93838 4.54186 10 5 10ZM4.20057 8.63509C4.03251 8.8872 3.8972 9.16092 3.7913 9.45485L3.79694 9.46072H4.79102C5.84888 9.46072 6.72407 9.18143 7.35687 8.54839C7.99037 7.91464 8.39924 6.90814 8.48547 5.41546V4.84961H7.21672C5.67025 4.84961 4.66419 5.19356 4.04524 5.73049C3.42939 6.26473 3.17744 7.00703 3.17505 7.84978V7.85056C3.17505 8.14389 3.17505 8.67352 3.60583 9.23864C3.70986 8.9764 3.83785 8.72848 3.99256 8.49642C4.39757 7.88891 4.98117 7.39682 5.78191 7.04094C5.845 7.0129 5.91887 7.04131 5.94691 7.1044C5.97494 7.16748 5.94653 7.24135 5.88345 7.26939C5.12169 7.60795 4.57682 8.07073 4.20057 8.63509Z"/>
</mask>
<path fill-rule="evenodd" clip-rule="evenodd" d="M5 10C7.76142 10 10 7.76142 10 5C10 2.23858 7.76142 0 5 0C2.23858 0 0 2.23858 0 5C0 7.2156 1.44109 9.09462 3.43707 9.75087C3.45855 9.67069 3.48186 9.59161 3.50707 9.51365C2.92558 8.83773 2.92505 8.1804 2.92505 7.84961L2.92505 7.84926C2.92755 6.95597 3.19644 6.13584 3.88142 5.54164C4.56334 4.9501 5.63818 4.59961 7.21672 4.59961H8.61047C8.6795 4.59961 8.73547 4.65557 8.73547 4.72461V5.41905V5.42623L8.73526 5.42622C8.64743 6.95657 8.22624 8.0323 7.53368 8.72513C6.83991 9.41917 5.89219 9.71072 4.79102 9.71072H3.74449C3.73251 9.71072 3.72071 9.709 3.70941 9.7057C3.69801 9.74447 3.68707 9.78357 3.67658 9.82298C4.0981 9.93838 4.54186 10 5 10ZM4.20057 8.63509C4.03251 8.8872 3.8972 9.16092 3.7913 9.45485L3.79694 9.46072H4.79102C5.84888 9.46072 6.72407 9.18143 7.35687 8.54839C7.99037 7.91464 8.39924 6.90814 8.48547 5.41546V4.84961H7.21672C5.67025 4.84961 4.66419 5.19356 4.04524 5.73049C3.42939 6.26473 3.17744 7.00703 3.17505 7.84978V7.85056C3.17505 8.14389 3.17505 8.67352 3.60583 9.23864C3.70986 8.9764 3.83785 8.72848 3.99256 8.49642C4.39757 7.88891 4.98117 7.39682 5.78191 7.04094C5.845 7.0129 5.91887 7.04131 5.94691 7.1044C5.97494 7.16748 5.94653 7.24135 5.88345 7.26939C5.12169 7.60795 4.57682 8.07073 4.20057 8.63509Z" fill="#748C70"/>
<path d="M3.43707 9.75087L3.35899 9.98837L3.61014 10.0709L3.67856 9.81557L3.43707 9.75087ZM3.50707 9.51365L3.74494 9.59056L3.78812 9.45701L3.69659 9.35061L3.50707 9.51365ZM2.92505 7.84961L2.67505 7.84927V7.84961H2.92505ZM2.92505 7.84926L2.67505 7.84856L2.67505 7.84892L2.92505 7.84926ZM3.88142 5.54164L4.04524 5.73049L3.88142 5.54164ZM8.73547 5.42623L8.7216 5.67584L8.98547 5.6905V5.42623H8.73547ZM8.73526 5.42622L8.74913 5.1766L8.49997 5.16276L8.48567 5.41189L8.73526 5.42622ZM7.53368 8.72513L7.71049 8.90187V8.90187L7.53368 8.72513ZM3.70941 9.7057L3.77957 9.46574L3.54 9.3957L3.46957 9.63515L3.70941 9.7057ZM3.67658 9.82298L3.43499 9.75867L3.37113 9.99856L3.61056 10.0641L3.67658 9.82298ZM3.7913 9.45485L3.5561 9.37011L3.50348 9.51615L3.61104 9.62808L3.7913 9.45485ZM4.20057 8.63509L3.99256 8.49642L4.20057 8.63509ZM3.79694 9.46072L3.61668 9.63395L3.69046 9.71072H3.79694V9.46072ZM7.35687 8.54839L7.53368 8.72513H7.53368L7.35687 8.54839ZM8.48547 5.41546L8.73505 5.42988L8.73547 5.42268V5.41546H8.48547ZM8.48547 4.84961H8.73547V4.59961H8.48547V4.84961ZM4.04524 5.73049L3.88142 5.54164H3.88142L4.04524 5.73049ZM3.17505 7.84978L2.92505 7.84907V7.84978H3.17505ZM3.17505 7.85056L3.42505 7.85056V7.85056H3.17505ZM3.60583 9.23864L3.407 9.39019L3.67512 9.74192L3.83821 9.33082L3.60583 9.23864ZM3.99256 8.49642L3.78455 8.35774H3.78455L3.99256 8.49642ZM5.78191 7.04094L5.88345 7.26939H5.88345L5.78191 7.04094ZM5.88345 7.26939L5.78191 7.04094V7.04094L5.88345 7.26939ZM9.75 5C9.75 7.62335 7.62335 9.75 5 9.75V10.25C7.89949 10.25 10.25 7.89949 10.25 5H9.75ZM5 0.25C7.62335 0.25 9.75 2.37665 9.75 5H10.25C10.25 2.1005 7.89949 -0.25 5 -0.25V0.25ZM0.25 5C0.25 2.37665 2.37665 0.25 5 0.25V-0.25C2.1005 -0.25 -0.25 2.1005 -0.25 5H0.25ZM3.51516 9.51338C1.6187 8.88986 0.25 7.10444 0.25 5H-0.25C-0.25 7.32677 1.26347 9.29939 3.35899 9.98837L3.51516 9.51338ZM3.67856 9.81557C3.69897 9.73936 3.72108 9.66435 3.74494 9.59056L3.26919 9.43675C3.24264 9.51886 3.21813 9.60202 3.19559 9.68618L3.67856 9.81557ZM3.69659 9.35061C3.17569 8.74512 3.17505 8.16509 3.17505 7.84961H2.67505C2.67505 8.19571 2.67547 8.93034 3.31755 9.67669L3.69659 9.35061ZM3.17505 7.84995L3.17505 7.8496L2.67505 7.84892L2.67505 7.84927L3.17505 7.84995ZM3.17505 7.84996C3.17741 7.00707 3.42938 6.26473 4.04524 5.73049L3.7176 5.3528C2.96351 6.00696 2.67769 6.90488 2.67505 7.84856L3.17505 7.84996ZM4.04524 5.73049C4.66418 5.19357 5.67023 4.84961 7.21672 4.84961V4.34961C5.60614 4.34961 4.46249 4.70663 3.7176 5.3528L4.04524 5.73049ZM7.21672 4.84961H8.61047V4.34961H7.21672V4.84961ZM8.61047 4.84961C8.54143 4.84961 8.48547 4.79364 8.48547 4.72461H8.98547C8.98547 4.5175 8.81757 4.34961 8.61047 4.34961V4.84961ZM8.48547 4.72461V5.41905H8.98547V4.72461H8.48547ZM8.48547 5.41905V5.42623H8.98547V5.41905H8.48547ZM8.74933 5.17661L8.74913 5.1766L8.72139 5.67583L8.7216 5.67584L8.74933 5.17661ZM8.48567 5.41189C8.39989 6.90656 7.99086 7.91415 7.35687 8.54839L7.71049 8.90187C8.46161 8.15046 8.89497 7.00659 8.98485 5.44054L8.48567 5.41189ZM7.35687 8.54839C6.72409 9.18141 5.84892 9.46072 4.79102 9.46072V9.96072C5.93546 9.96072 6.95573 9.65693 7.71049 8.90187L7.35687 8.54839ZM4.79102 9.46072H3.74449V9.96072H4.79102V9.46072ZM3.74449 9.46072C3.75647 9.46072 3.76828 9.46244 3.77957 9.46574L3.63926 9.94565C3.67314 9.95556 3.70856 9.96072 3.74449 9.96072V9.46072ZM3.46957 9.63515C3.45754 9.67605 3.44602 9.71723 3.43499 9.75867L3.91816 9.88729C3.92811 9.84991 3.93847 9.81289 3.94925 9.77624L3.46957 9.63515ZM5 9.75C4.56436 9.75 4.14281 9.69142 3.74259 9.58185L3.61056 10.0641C4.0534 10.1853 4.51935 10.25 5 10.25V9.75ZM4.0265 9.53959C4.12611 9.26311 4.25261 9.00774 4.40859 8.77377L3.99256 8.49642C3.8124 8.76666 3.66828 9.05873 3.5561 9.37011L4.0265 9.53959ZM3.97719 9.28749L3.97155 9.28162L3.61104 9.62808L3.61668 9.63395L3.97719 9.28749ZM4.79102 9.21072H3.79694V9.71072H4.79102V9.21072ZM7.18006 8.37165C6.60821 8.94372 5.80552 9.21072 4.79102 9.21072V9.71072C5.89223 9.71072 6.83994 9.41915 7.53368 8.72513L7.18006 8.37165ZM8.23588 5.40104C8.15172 6.85797 7.75507 7.79641 7.18006 8.37165L7.53368 8.72513C8.22567 8.03287 8.64676 6.95831 8.73505 5.42988L8.23588 5.40104ZM8.23547 4.84961V5.41546H8.73547V4.84961H8.23547ZM7.21672 5.09961H8.48547V4.59961H7.21672V5.09961ZM4.20906 5.91934C4.76506 5.43702 5.70234 5.09961 7.21672 5.09961V4.59961C5.63816 4.59961 4.56332 4.95011 3.88142 5.54164L4.20906 5.91934ZM3.42505 7.85049C3.4273 7.05827 3.66225 6.39368 4.20906 5.91934L3.88142 5.54164C3.19653 6.13577 2.92759 6.95579 2.92505 7.84907L3.42505 7.85049ZM3.42505 7.85056V7.84978H2.92505V7.85056H3.42505ZM3.80465 9.08708C3.4259 8.59022 3.42505 8.1316 3.42505 7.85056L2.92505 7.85056C2.92505 8.15618 2.9242 8.75683 3.407 9.39019L3.80465 9.08708ZM3.78455 8.35774C3.61948 8.60534 3.48351 8.86899 3.37344 9.14645L3.83821 9.33082C3.9362 9.08381 4.05622 8.85162 4.20057 8.63509L3.78455 8.35774ZM5.68038 6.81249C4.84065 7.1857 4.21832 7.70709 3.78455 8.35774L4.20057 8.63509C4.57682 8.07073 5.12169 7.60795 5.88345 7.26939L5.68038 6.81249ZM6.17536 7.00286C6.09125 6.81361 5.86964 6.72837 5.68038 6.81249L5.88345 7.26939C5.82036 7.29743 5.74649 7.26902 5.71845 7.20593L6.17536 7.00286ZM5.98498 7.49784C6.17424 7.41373 6.25947 7.19212 6.17536 7.00286L5.71845 7.20593C5.69042 7.14285 5.71883 7.06898 5.78191 7.04094L5.98498 7.49784ZM4.40859 8.77377C4.75607 8.25254 5.26221 7.81907 5.98498 7.49784L5.78191 7.04094C4.98117 7.39683 4.39757 7.88891 3.99256 8.49642L4.40859 8.77377Z" fill="white" mask="url(#path-1-inside-1_3499_20558)"/>
</svg>
